<svg width="70" height="71" viewBox="0 0 70 71" fill="none" xmlns="http://www.w3.org/2000/svg">
<g clip-path="url(#clip0_60_1102)">
<path d="M31.4827 32.4028C31.4878 31.3301 31.843 30.2883 32.4945 29.4359C33.3724 28.3059 34.3737 27.2775 35.4799 26.3698C36.478 25.5114 37.393 24.561 38.213 23.5312C38.7286 22.8078 38.9957 21.9366 38.9743 21.0485C38.9866 20.5047 38.8892 19.964 38.6878 19.4588C38.4864 18.9535 38.1852 18.494 37.8023 18.1077C37.4193 17.7215 36.9624 17.4165 36.4589 17.2108C35.9553 17.0051 35.4155 16.903 34.8716 16.9106C33.7861 16.9001 32.737 17.3016 31.9358 18.0341C31.0025 18.9333 30.3219 20.062 29.9621 21.3071L25.5098 19.3644C26.076 17.1965 27.327 15.2692 29.0766 13.8694C30.8029 12.5714 32.9174 11.8955 35.0765 11.9515C36.7188 11.9344 38.3413 12.3111 39.8081 13.0501C41.2062 13.7521 42.3869 14.8213 43.2239 16.1431C44.0725 17.489 44.5123 19.0521 44.4901 20.643C44.5081 22.0758 44.1224 23.4847 43.377 24.7085C42.4347 26.1485 41.293 27.4475 39.986 28.567C38.9882 29.4135 38.0495 30.3273 37.1764 31.302C36.6757 31.8755 36.3974 32.6097 36.3923 33.371C36.4064 33.8375 36.4759 34.3007 36.5992 34.7509H32.0476C31.6926 34.0179 31.5 33.2171 31.4827 32.4028ZM34.5179 46.819C33.9981 46.8321 33.4812 46.7394 32.9985 46.5462C32.5158 46.3531 32.0775 46.0636 31.7103 45.6956C31.3368 45.3308 31.0427 44.8927 30.8466 44.4089C30.6504 43.925 30.5564 43.4058 30.5704 42.8839C30.5581 42.3582 30.6528 41.8355 30.8487 41.3475C31.0447 40.8595 31.3378 40.4165 31.7103 40.0453C32.0741 39.6709 32.5111 39.3755 32.9942 39.1776C33.4772 38.9796 33.9959 38.8835 34.5179 38.8951C35.0429 38.8839 35.5648 38.9797 36.0517 39.1767C36.5385 39.3737 36.9801 39.6677 37.3497 40.0409C37.7192 40.4141 38.0089 40.8586 38.201 41.3474C38.3932 41.8362 38.4839 42.359 38.4674 42.8839C38.4813 43.4056 38.3874 43.9247 38.1917 44.4085C37.9959 44.8923 37.7024 45.3304 37.3295 45.6956C36.9614 46.0636 36.5223 46.3529 36.039 46.546C35.5557 46.7391 35.0382 46.8319 34.5179 46.819Z" fill="#62CF73"/>
<path d="M3.04964 70.4874C2.6019 70.487 2.15973 70.3882 1.75449 70.1978C1.22814 69.9551 0.782792 69.5659 0.471676 69.0769C0.16056 68.5878 -0.00316741 68.0196 4.64202e-05 67.4399V8.11974C0.00223684 6.16041 0.781553 4.28186 2.16701 2.89641C3.55247 1.51095 5.43091 0.731683 7.39024 0.729492H62.6098C64.5692 0.731683 66.4476 1.51095 67.8331 2.89641C69.2186 4.28186 69.9979 6.16041 70 8.11974V50.3588C69.9973 52.3178 69.2177 54.1957 67.8323 55.5808C66.4469 56.9658 64.5688 57.7448 62.6098 57.747H21.2893C20.0513 57.7474 18.8527 58.1824 17.9025 58.976L4.99237 69.7757C4.44813 70.2331 3.76058 70.485 3.04964 70.4874ZM7.39024 4.86734C6.528 4.86844 5.7014 5.21142 5.0917 5.82111C4.482 6.43081 4.13899 7.2575 4.1379 8.11974V65.0937L15.248 55.8022C16.9431 54.3868 19.081 53.6108 21.2893 53.6092H62.6098C63.4719 53.6086 64.2985 53.266 64.9083 52.6567C65.518 52.0473 65.8611 51.2209 65.8622 50.3588V8.11974C65.8611 7.2575 65.5181 6.43081 64.9084 5.82111C64.2987 5.21142 63.4721 4.86844 62.6098 4.86734H7.39024Z" fill="#62CF73"/>
</g>
<defs>
<clipPath id="clip0_60_1102">
<rect width="70" height="69.7579" fill="white" transform="translate(0 0.729492)"/>
</clipPath>
</defs>
</svg>
