<svg width="10" height="6" viewBox="0 0 10 6" fill="none" xmlns="http://www.w3.org/2000/svg">
<path d="M0.84338 0.636512C0.795645 0.591402 0.739492 0.556138 0.678127 0.53273C0.616763 0.509322 0.551389 0.49823 0.485738 0.500087C0.420087 0.501945 0.355445 0.516715 0.295502 0.543554C0.235559 0.570393 0.181489 0.608776 0.13638 0.656512C0.0912711 0.704247 0.056006 0.760401 0.0325982 0.821765C0.00919049 0.883129 -0.00190152 0.948503 -4.43467e-05 1.01415C0.00181283 1.0798 0.0165827 1.14445 0.0434221 1.20439C0.0702615 1.26433 0.108645 1.3184 0.15638 1.36351L4.65638 5.61351C4.74921 5.70128 4.87212 5.75018 4.99988 5.75018C5.12764 5.75018 5.25055 5.70128 5.34338 5.61351L9.84388 1.36351C9.89266 1.3187 9.93205 1.26464 9.95976 1.20448C9.98748 1.14432 10.003 1.07925 10.0053 1.01305C10.0077 0.946851 9.99684 0.880847 9.97346 0.818868C9.95009 0.75689 9.91464 0.700173 9.86916 0.652013C9.82368 0.603853 9.76909 0.565208 9.70855 0.538325C9.64801 0.511442 9.58273 0.496856 9.51651 0.495414C9.45029 0.493971 9.38444 0.505702 9.32279 0.529924C9.26114 0.554146 9.20491 0.590376 9.15738 0.636511L4.99988 4.56251L0.84338 0.636512Z" fill="#242424"/>
</svg>
