<svg width="44" height="35" viewBox="0 0 44 35" fill="none" xmlns="http://www.w3.org/2000/svg">
<path d="M0 7.03125C0 5.16645 0.74079 3.37802 2.05941 2.05941C3.37802 0.74079 5.16645 0 7.03125 0H36.7188C38.5836 0 40.372 0.74079 41.6906 2.05941C43.0092 3.37802 43.75 5.16645 43.75 7.03125V27.3438C43.75 29.2086 43.0092 30.997 41.6906 32.3156C40.372 33.6342 38.5836 34.375 36.7188 34.375H7.03125C5.16645 34.375 3.37802 33.6342 2.05941 32.3156C0.74079 30.997 0 29.2086 0 27.3438V7.03125ZM7.03125 3.125C5.99525 3.125 5.00168 3.53655 4.26911 4.26911C3.53655 5.00168 3.125 5.99525 3.125 7.03125V9.375H40.625V7.03125C40.625 5.99525 40.2135 5.00168 39.4809 4.26911C38.7483 3.53655 37.7548 3.125 36.7188 3.125H7.03125ZM3.125 27.3438C3.125 28.3798 3.53655 29.3733 4.26911 30.1059C5.00168 30.8384 5.99525 31.25 7.03125 31.25H36.7188C37.7548 31.25 38.7483 30.8384 39.4809 30.1059C40.2135 29.3733 40.625 28.3798 40.625 27.3438V12.5H3.125V27.3438ZM29.6875 21.875H34.375C34.7894 21.875 35.1868 22.0396 35.4799 22.3326C35.7729 22.6257 35.9375 23.0231 35.9375 23.4375C35.9375 23.8519 35.7729 24.2493 35.4799 24.5424C35.1868 24.8354 34.7894 25 34.375 25H29.6875C29.2731 25 28.8757 24.8354 28.5826 24.5424C28.2896 24.2493 28.125 23.8519 28.125 23.4375C28.125 23.0231 28.2896 22.6257 28.5826 22.3326C28.8757 22.0396 29.2731 21.875 29.6875 21.875Z" fill="#6CBF79"/>
</svg>
