<svg width="84" height="67" viewBox="0 0 84 67" fill="none" xmlns="http://www.w3.org/2000/svg">
<path d="M81.4585 29.8112L77.1668 23.8529C76.2063 22.5037 74.9379 21.4031 73.4669 20.6422C71.9959 19.8814 70.3646 19.4822 68.7085 19.4779H50.4585V10.5612C50.4585 7.79853 49.361 5.14901 47.4075 3.1955C45.454 1.242 42.8045 0.144531 40.0418 0.144531H11.0002C8.23986 0.152228 5.59481 1.25217 3.64297 3.204C1.69113 5.15584 0.591193 7.80089 0.583496 10.5612V51.9779C0.583496 53.6355 1.24198 55.2252 2.41408 56.3973C3.58618 57.5694 5.17589 58.2279 6.8335 58.2279H11.9168C12.2315 60.4572 13.3406 62.4979 15.0402 63.9744C16.7398 65.451 18.9154 66.2641 21.1668 66.2641C23.4182 66.2641 25.5939 65.451 27.2935 63.9744C28.9931 62.4979 30.1022 60.4572 30.4168 58.2279H53.5835C53.8981 60.4572 55.0073 62.4979 56.7069 63.9744C58.4064 65.451 60.5821 66.2641 62.8335 66.2641C65.0849 66.2641 67.2606 65.451 68.9601 63.9744C70.6597 62.4979 71.7689 60.4572 72.0835 58.2279H77.1668C78.8244 58.2279 80.4141 57.5694 81.5862 56.3973C82.7583 55.2252 83.4168 53.6355 83.4168 51.9779V35.8529C83.4067 33.6846 82.7223 31.5731 81.4585 29.8112ZM21.1668 62.1029C20.1367 62.1029 19.1297 61.7974 18.2732 61.2251C17.4167 60.6528 16.7492 59.8394 16.355 58.8877C15.9607 57.936 15.8576 56.8888 16.0586 55.8784C16.2595 54.8681 16.7556 53.9401 17.484 53.2117C18.2124 52.4833 19.1404 51.9872 20.1507 51.7863C21.1611 51.5853 22.2083 51.6885 23.16 52.0827C24.1117 52.4769 24.9251 53.1444 25.4974 54.0009C26.0697 54.8574 26.3752 55.8644 26.3752 56.8945C26.3752 58.2759 25.8264 59.6006 24.8497 60.5774C23.8729 61.5541 22.5482 62.1029 21.1668 62.1029ZM46.2918 54.0612H30.1252C29.5185 52.1617 28.3237 50.5042 26.7135 49.3282C25.1032 48.1521 23.1608 47.5183 21.1668 47.5183C19.1728 47.5183 17.2304 48.1521 15.6202 49.3282C14.0099 50.5042 12.8152 52.1617 12.2085 54.0612H6.8335C6.28096 54.0612 5.75106 53.8417 5.36036 53.451C4.96966 53.0603 4.75016 52.5304 4.75016 51.9779V10.5612C4.75016 8.9036 5.40864 7.31388 6.58075 6.14178C7.75285 4.96968 9.34256 4.3112 11.0002 4.3112H40.0418C41.6994 4.3112 43.2891 4.96968 44.4612 6.14178C45.6334 7.31388 46.2918 8.9036 46.2918 10.5612V54.0612ZM62.8335 62.1029C61.8034 62.1029 60.7964 61.7974 59.9399 61.2251C59.0834 60.6528 58.4158 59.8394 58.0216 58.8877C57.6274 57.936 57.5243 56.8888 57.7252 55.8784C57.9262 54.8681 58.4222 53.9401 59.1506 53.2117C59.879 52.4833 60.8071 51.9872 61.8174 51.7863C62.8277 51.5853 63.8749 51.6885 64.8266 52.0827C65.7783 52.4769 66.5918 53.1444 67.1641 54.0009C67.7364 54.8574 68.0418 55.8644 68.0418 56.8945C68.0418 58.2759 67.4931 59.6006 66.5163 60.5774C65.5396 61.5541 64.2148 62.1029 62.8335 62.1029ZM79.2502 51.9779C79.2502 52.5304 79.0307 53.0603 78.64 53.451C78.2493 53.8417 77.7194 54.0612 77.1668 54.0612H71.7918C71.1852 52.1617 69.9904 50.5042 68.3802 49.3282C66.7699 48.1521 64.8275 47.5183 62.8335 47.5183C60.8395 47.5183 58.8971 48.1521 57.2868 49.3282C55.6766 50.5042 54.4818 52.1617 53.8752 54.0612H50.4585V23.6445H68.7085C69.7026 23.6512 70.6811 23.8924 71.5644 24.3485C72.4477 24.8047 73.2109 25.4628 73.7918 26.2695L78.0835 32.2279C78.8334 33.2888 79.2405 34.5538 79.2502 35.8529V51.9779Z" fill="#62CF73"/>
</svg>
