<svg width="21" height="20" viewBox="0 0 21 20" fill="none" xmlns="http://www.w3.org/2000/svg">
<path d="M10.5068 0.25C8.57847 0.25 6.69341 0.821828 5.09003 1.89317C3.48665 2.96451 2.23697 4.48726 1.49901 6.26884C0.76106 8.05042 0.567978 10.0108 0.944184 11.9021C1.32039 13.7934 2.24899 15.5307 3.61255 16.8943C4.97611 18.2579 6.7134 19.1865 8.60471 19.5627C10.496 19.9389 12.4564 19.7458 14.238 19.0078C16.0196 18.2699 17.5423 17.0202 18.6137 15.4168C19.685 13.8134 20.2568 11.9284 20.2568 10C20.2541 7.41498 19.226 4.93661 17.3981 3.10872C15.5702 1.28084 13.0919 0.25273 10.5068 0.25ZM10.5068 18.25C8.87514 18.25 7.28009 17.7661 5.92339 16.8596C4.56668 15.9531 3.50926 14.6646 2.88483 13.1571C2.26041 11.6496 2.09703 9.99085 2.41536 8.3905C2.73369 6.79016 3.51943 5.32015 4.67321 4.16637C5.82699 3.01259 7.297 2.22685 8.89735 1.90852C10.4977 1.59019 12.1565 1.75357 13.664 2.37799C15.1715 3.00242 16.4599 4.05984 17.3665 5.41655C18.273 6.77325 18.7568 8.3683 18.7568 10C18.7544 12.1873 17.8844 14.2843 16.3377 15.8309C14.7911 17.3775 12.6941 18.2475 10.5068 18.25ZM12.0068 14.5C12.0068 14.6989 11.9278 14.8897 11.7872 15.0303C11.6465 15.171 11.4558 15.25 11.2568 15.25C10.859 15.25 10.4775 15.092 10.1962 14.8107C9.91488 14.5294 9.75684 14.1478 9.75684 13.75V10C9.55793 10 9.36716 9.92098 9.22651 9.78033C9.08586 9.63968 9.00684 9.44891 9.00684 9.25C9.00684 9.05109 9.08586 8.86032 9.22651 8.71967C9.36716 8.57902 9.55793 8.5 9.75684 8.5C10.1547 8.5 10.5362 8.65804 10.8175 8.93934C11.0988 9.22064 11.2568 9.60218 11.2568 10V13.75C11.4558 13.75 11.6465 13.829 11.7872 13.9697C11.9278 14.1103 12.0068 14.3011 12.0068 14.5ZM9.00684 5.875C9.00684 5.6525 9.07282 5.43499 9.19644 5.24998C9.32005 5.06498 9.49575 4.92078 9.70132 4.83564C9.90689 4.75049 10.1331 4.72821 10.3513 4.77162C10.5695 4.81502 10.77 4.92217 10.9273 5.0795C11.0847 5.23684 11.1918 5.43729 11.2352 5.65552C11.2786 5.87375 11.2564 6.09995 11.1712 6.30552C11.0861 6.51109 10.9419 6.68679 10.7569 6.8104C10.5719 6.93402 10.3543 7 10.1318 7C9.83347 7 9.54732 6.88147 9.33634 6.6705C9.12537 6.45952 9.00684 6.17337 9.00684 5.875Z" fill="#62CF73"/>
</svg>
