<svg width="34" height="33" viewBox="0 0 34 33" fill="none" xmlns="http://www.w3.org/2000/svg">
<path d="M30.75 0.875H3.25003C2.42123 0.875 1.62637 1.20424 1.04032 1.79029C0.454267 2.37634 0.125027 3.1712 0.125027 4V29C0.122531 29.5951 0.291563 30.1784 0.611896 30.6799C0.932228 31.1815 1.39029 31.5801 1.93128 31.8281C2.34655 32.0226 2.7993 32.1239 3.25784 32.125C3.99163 32.1231 4.70113 31.8619 5.26096 31.3875L5.29065 31.3625L10.125 27.125H30.75C31.5788 27.125 32.3737 26.7958 32.9597 26.2097C33.5458 25.6237 33.875 24.8288 33.875 24V4C33.875 3.1712 33.5458 2.37634 32.9597 1.79029C32.3737 1.20424 31.5788 0.875 30.75 0.875ZM30.125 23.375H9.89065C9.15498 23.375 8.44287 23.6345 7.87971 24.1078L7.85003 24.1328L3.87503 27.6156V4.625H30.125V23.375Z" fill="#6CBF79"/>
</svg>
