<svg width="6" height="10" viewBox="0 0 6 10" fill="none" xmlns="http://www.w3.org/2000/svg">
<path d="M0.636329 9.1565C0.591219 9.20424 0.555955 9.26039 0.532547 9.32175C0.509139 9.38312 0.498047 9.44849 0.499904 9.51414C0.501761 9.57979 0.516531 9.64444 0.543371 9.70438C0.57021 9.76432 0.608593 9.81839 0.656329 9.8635C0.704064 9.90861 0.760218 9.94388 0.821582 9.96728C0.882946 9.99069 0.94832 10.0018 1.01397 9.99993C1.07962 9.99807 1.14426 9.9833 1.20421 9.95646C1.26415 9.92962 1.31822 9.89124 1.36333 9.8435L5.61333 5.3435C5.7011 5.25067 5.75 5.12776 5.75 5C5.75 4.87225 5.7011 4.74934 5.61333 4.6565L1.36333 0.156001C1.31852 0.107221 1.26446 0.0678295 1.2043 0.0401177C1.14413 0.0124058 1.07906 -0.00307614 1.01287 -0.0054279C0.946668 -0.00777966 0.880663 0.00304551 0.818685 0.0264182C0.756706 0.0497908 0.699989 0.0852456 0.651829 0.130722C0.603669 0.176199 0.565025 0.230793 0.538142 0.291332C0.511259 0.35187 0.496673 0.417147 0.49523 0.48337C0.493788 0.549593 0.505519 0.615444 0.52974 0.677095C0.553962 0.738746 0.590193 0.79497 0.636328 0.842501L4.56233 5L0.636329 9.1565Z" fill="#595959"/>
</svg>
