<svg width="34" height="36" viewBox="0 0 34 36" fill="none" xmlns="http://www.w3.org/2000/svg">
<path fill-rule="evenodd" clip-rule="evenodd" d="M8.83162 0.0833742H25.1666C26.8616 0.0833742 28.0283 0.0833742 29.01 0.423374C29.9275 0.747388 30.7579 1.27866 31.4366 1.97589C32.1153 2.67311 32.6241 3.5175 32.9233 4.44337C33.25 5.43837 33.2483 6.62171 33.2483 8.37671V31.9567C33.2483 34.4 30.37 35.8534 28.475 34.1184C28.4142 34.0602 28.3333 34.0277 28.2491 34.0277C28.165 34.0277 28.0841 34.0602 28.0233 34.1184L27.2166 34.855C25.67 36.2717 23.3266 36.2717 21.78 34.855C21.5 34.5937 21.1313 34.4483 20.7483 34.4483C20.3653 34.4483 19.9966 34.5937 19.7166 34.855C18.17 36.2717 15.8266 36.2717 14.28 34.855C14 34.5937 13.6313 34.4483 13.2483 34.4483C12.8653 34.4483 12.4966 34.5937 12.2166 34.855C10.67 36.2717 8.32662 36.2717 6.77996 34.855L5.97496 34.1184C5.91408 34.0597 5.83283 34.0269 5.74829 34.0269C5.66375 34.0269 5.5825 34.0597 5.52162 34.1184C3.62662 35.8517 0.748291 34.4 0.748291 31.9567V8.37837C0.748291 6.62171 0.748291 5.43837 1.07329 4.44337C1.37241 3.51744 1.88112 2.67299 2.55986 1.97575C3.2386 1.27851 4.06906 0.747276 4.98662 0.423374C5.96996 0.0817075 7.13662 0.0833742 8.83162 0.0833742ZM9.07329 2.58337C7.03829 2.58337 6.33662 2.60004 5.80662 2.78504C5.25285 2.98305 4.75217 3.30603 4.34345 3.72891C3.93474 4.15179 3.62899 4.66318 3.44996 5.22337C3.26496 5.78671 3.24996 6.53004 3.24996 8.61671V31.9567C3.24996 32.1567 3.34829 32.2767 3.47329 32.335C3.53032 32.3622 3.5939 32.3726 3.65662 32.365C3.72428 32.3542 3.78673 32.3221 3.83496 32.2734C4.35648 31.7933 5.03943 31.5268 5.74829 31.5268C6.45715 31.5268 7.1401 31.7933 7.66162 32.2734L8.46662 33.01C8.74657 33.2714 9.11529 33.4168 9.49829 33.4168C9.88129 33.4168 10.25 33.2714 10.53 33.01C11.2707 32.3275 12.2411 31.9486 13.2483 31.9486C14.2555 31.9486 15.2259 32.3275 15.9666 33.01C16.2466 33.2714 16.6153 33.4168 16.9983 33.4168C17.3813 33.4168 17.75 33.2714 18.03 33.01C18.7707 32.3275 19.7411 31.9486 20.7483 31.9486C21.7555 31.9486 22.7259 32.3275 23.4666 33.01C23.7466 33.2714 24.1153 33.4168 24.4983 33.4168C24.8813 33.4168 25.25 33.2714 25.53 33.01L26.335 32.2734C26.8565 31.7933 27.5394 31.5268 28.2483 31.5268C28.9571 31.5268 29.6401 31.7933 30.1616 32.2734C30.2333 32.34 30.295 32.36 30.3416 32.365C30.4038 32.3723 30.4668 32.3619 30.5233 32.335C30.6483 32.2767 30.7483 32.155 30.7483 31.9567V8.61671C30.7483 6.53004 30.7316 5.78671 30.5483 5.22171C30.3687 4.66147 30.0623 4.15018 29.653 3.72758C29.2437 3.30498 28.7425 2.98245 28.1883 2.78504C27.66 2.60171 26.9583 2.58504 24.9233 2.58504L9.07329 2.58337ZM7.41662 10.5C7.41662 10.1685 7.54832 9.85058 7.78274 9.61616C8.01716 9.38174 8.3351 9.25004 8.66662 9.25004H9.49996C9.83148 9.25004 10.1494 9.38174 10.3838 9.61616C10.6183 9.85058 10.75 10.1685 10.75 10.5C10.75 10.8316 10.6183 11.1495 10.3838 11.3839C10.1494 11.6183 9.83148 11.75 9.49996 11.75H8.66662C8.3351 11.75 8.01716 11.6183 7.78274 11.3839C7.54832 11.1495 7.41662 10.8316 7.41662 10.5ZM13.25 10.5C13.25 10.1685 13.3817 9.85058 13.6161 9.61616C13.8505 9.38174 14.1684 9.25004 14.5 9.25004H25.3333C25.6648 9.25004 25.9828 9.38174 26.2172 9.61616C26.4516 9.85058 26.5833 10.1685 26.5833 10.5C26.5833 10.8316 26.4516 11.1495 26.2172 11.3839C25.9828 11.6183 25.6648 11.75 25.3333 11.75H14.5C14.1684 11.75 13.8505 11.6183 13.6161 11.3839C13.3817 11.1495 13.25 10.8316 13.25 10.5ZM7.41662 16.3334C7.41662 16.0019 7.54832 15.6839 7.78274 15.4495C8.01716 15.2151 8.3351 15.0834 8.66662 15.0834H9.49996C9.83148 15.0834 10.1494 15.2151 10.3838 15.4495C10.6183 15.6839 10.75 16.0019 10.75 16.3334C10.75 16.6649 10.6183 16.9828 10.3838 17.2173C10.1494 17.4517 9.83148 17.5834 9.49996 17.5834H8.66662C8.3351 17.5834 8.01716 17.4517 7.78274 17.2173C7.54832 16.9828 7.41662 16.6649 7.41662 16.3334ZM13.25 16.3334C13.25 16.0019 13.3817 15.6839 13.6161 15.4495C13.8505 15.2151 14.1684 15.0834 14.5 15.0834H25.3333C25.6648 15.0834 25.9828 15.2151 26.2172 15.4495C26.4516 15.6839 26.5833 16.0019 26.5833 16.3334C26.5833 16.6649 26.4516 16.9828 26.2172 17.2173C25.9828 17.4517 25.6648 17.5834 25.3333 17.5834H14.5C14.1684 17.5834 13.8505 17.4517 13.6161 17.2173C13.3817 16.9828 13.25 16.6649 13.25 16.3334ZM7.41662 22.1667C7.41662 21.8352 7.54832 21.5172 7.78274 21.2828C8.01716 21.0484 8.3351 20.9167 8.66662 20.9167H9.49996C9.83148 20.9167 10.1494 21.0484 10.3838 21.2828C10.6183 21.5172 10.75 21.8352 10.75 22.1667C10.75 22.4982 10.6183 22.8162 10.3838 23.0506C10.1494 23.285 9.83148 23.4167 9.49996 23.4167H8.66662C8.3351 23.4167 8.01716 23.285 7.78274 23.0506C7.54832 22.8162 7.41662 22.4982 7.41662 22.1667ZM13.25 22.1667C13.25 21.8352 13.3817 21.5172 13.6161 21.2828C13.8505 21.0484 14.1684 20.9167 14.5 20.9167H25.3333C25.6648 20.9167 25.9828 21.0484 26.2172 21.2828C26.4516 21.5172 26.5833 21.8352 26.5833 22.1667C26.5833 22.4982 26.4516 22.8162 26.2172 23.0506C25.9828 23.285 25.6648 23.4167 25.3333 23.4167H14.5C14.1684 23.4167 13.8505 23.285 13.6161 23.0506C13.3817 22.8162 13.25 22.4982 13.25 22.1667Z" fill="#6CBF79"/>
</svg>
