<svg width="19" height="18" viewBox="0 0 19 18" fill="none" xmlns="http://www.w3.org/2000/svg">
<path d="M16.4999 3.03047C14.8545 1.17422 12.4604 0 9.78149 0C4.8104 0 0.781494 4.02891 0.781494 9H3.03149C3.03149 5.26992 6.05142 2.25 9.78149 2.25C11.8381 2.25 13.6627 3.18164 14.8967 4.63359L12.7803 6.75H18.7815V0.748828L16.4999 3.03047ZM9.78149 15.75C7.72485 15.75 5.90024 14.8184 4.66626 13.3664L6.78267 11.25H0.781494V17.2512L3.06313 14.9695C4.70845 16.8258 7.1061 18 9.78149 18C14.7526 18 18.7815 13.9711 18.7815 9H16.5315C16.5315 12.7301 13.5116 15.75 9.78149 15.75Z" fill="white"/>
</svg>
