<svg width="34" height="40" viewBox="0 0 34 40" fill="none" xmlns="http://www.w3.org/2000/svg">
<path d="M30.2483 4.40668L16.9999 0.0150146L3.75159 4.40668C2.75745 4.73339 1.8918 5.36555 1.278 6.21307C0.664205 7.0606 0.333583 8.08024 0.333252 9.12668V20C0.333252 32.54 15.6666 39.465 16.3233 39.7533L16.9133 40.015L17.5266 39.8117C18.1849 39.5917 33.6666 34.295 33.6666 20V9.12668C33.666 8.0803 33.3353 7.06078 32.7215 6.2133C32.1078 5.36583 31.2423 4.73361 30.2483 4.40668ZM30.3333 20C30.3333 30.4383 19.7516 35.36 17.0783 36.435C14.3999 35.0967 3.66659 29.1567 3.66659 20V9.12668C3.66673 8.7778 3.77702 8.43787 3.98173 8.15535C4.18643 7.87283 4.4751 7.66215 4.80659 7.55335L16.9999 3.51001L29.1933 7.55335C29.525 7.66171 29.814 7.87227 30.0187 8.15489C30.2235 8.43751 30.3336 8.77767 30.3333 9.12668V20Z" fill="#6CBF79"/>
</svg>
