<svg width="36" height="36" viewBox="0 0 36 36" fill="none" xmlns="http://www.w3.org/2000/svg">
<path d="M18 36C27.9411 36 36 27.9411 36 18C36 8.05887 27.9411 0 18 0C8.05887 0 0 8.05887 0 18C0 27.9411 8.05887 36 18 36Z" fill="url(#paint0_linear_60_1848)"/>
<path d="M26.7611 10.357L23.5478 26.5641C23.5478 26.5641 23.0978 27.6891 21.8603 27.1477L14.4424 21.4594L11.7424 20.1586L7.20019 18.6328C7.20019 18.6328 6.5041 18.3867 6.43379 17.8453C6.36347 17.3039 7.22129 17.0156 7.22129 17.0156L25.2775 9.93517C25.2775 9.92814 26.7611 9.27423 26.7611 10.357Z" fill="white"/>
<path d="M13.8656 26.3813C13.8656 26.3813 13.6477 26.3602 13.3805 25.5094C13.1133 24.6586 11.7422 20.1586 11.7422 20.1586L22.6477 13.2328C22.6477 13.2328 23.2805 12.8531 23.2523 13.2328C23.2523 13.2328 23.3648 13.3032 23.0273 13.6125C22.6898 13.9289 14.4633 21.3258 14.4633 21.3258" fill="#D2E4F0"/>
<path d="M17.2832 23.6391L14.3512 26.318C14.3512 26.318 14.1191 26.4938 13.873 26.3813L14.4355 21.4102" fill="#B5CFE4"/>
<defs>
<linearGradient id="paint0_linear_60_1848" x1="18" y1="0" x2="18" y2="35.8687" gradientUnits="userSpaceOnUse">
<stop stop-color="#41BCE7"/>
<stop offset="1" stop-color="#22A6DC"/>
</linearGradient>
</defs>
</svg>
