<svg width="44" height="44" viewBox="0 0 44 44" fill="none" xmlns="http://www.w3.org/2000/svg">
<path d="M5.5 15H22V17.75H5.5V15ZM2.75 8.125H16.5V10.875H2.75V8.125Z" fill="#6CBF79"/>
<path d="M41.1387 15.8333L37.0137 6.20825C36.9079 5.96086 36.7317 5.75001 36.507 5.60187C36.2824 5.45374 36.0192 5.37485 35.7501 5.375H31.6251V2.625C31.6251 2.26033 31.4802 1.91059 31.2224 1.65273C30.9645 1.39487 30.6148 1.25 30.2501 1.25H8.25009V4H28.8751V21.2645C28.2486 21.6283 27.7002 22.1126 27.2618 22.6893C26.8233 23.2661 26.5033 23.924 26.3203 24.625H17.6798C17.3452 23.3288 16.5493 22.1992 15.4413 21.4479C14.3334 20.6966 12.9895 20.3752 11.6615 20.5438C10.3335 20.7125 9.11259 21.3597 8.22765 22.3642C7.34272 23.3686 6.85449 24.6613 6.85449 26C6.85449 27.3387 7.34272 28.6314 8.22765 29.6358C9.11259 30.6403 10.3335 31.2875 11.6615 31.4562C12.9895 31.6248 14.3334 31.3034 15.4413 30.5521C16.5493 29.8008 17.3452 28.6712 17.6798 27.375H26.3203C26.6195 28.5551 27.3035 29.6017 28.2643 30.3494C29.2251 31.097 30.4077 31.5029 31.6251 31.5029C32.8425 31.5029 34.0251 31.097 34.9859 30.3494C35.9467 29.6017 36.6307 28.5551 36.9298 27.375H39.8751C40.2398 27.375 40.5895 27.2301 40.8474 26.9723C41.1052 26.7144 41.2501 26.3647 41.2501 26V16.375C41.2502 16.1887 41.2123 16.0044 41.1387 15.8333ZM12.3751 28.75C11.8312 28.75 11.2995 28.5887 10.8473 28.2865C10.395 27.9844 10.0426 27.5549 9.83442 27.0524C9.62628 26.5499 9.57183 25.997 9.67793 25.4635C9.78404 24.9301 10.046 24.4401 10.4306 24.0555C10.8151 23.6709 11.3051 23.4089 11.8386 23.3028C12.372 23.1967 12.925 23.2512 13.4275 23.4593C13.93 23.6675 14.3595 24.0199 14.6616 24.4722C14.9638 24.9244 15.1251 25.4561 15.1251 26C15.1244 26.7291 14.8344 27.4282 14.3188 27.9437C13.8033 28.4593 13.1042 28.7493 12.3751 28.75ZM31.6251 8.125H34.8426L37.7906 15H31.6251V8.125ZM31.6251 28.75C31.0812 28.75 30.5495 28.5887 30.0973 28.2865C29.645 27.9844 29.2926 27.5549 29.0844 27.0524C28.8763 26.5499 28.8218 25.997 28.9279 25.4635C29.034 24.9301 29.296 24.4401 29.6805 24.0555C30.0651 23.6709 30.5551 23.4089 31.0886 23.3028C31.622 23.1967 32.175 23.2512 32.6775 23.4593C33.18 23.6675 33.6095 24.0199 33.9116 24.4722C34.2138 24.9244 34.3751 25.4561 34.3751 26C34.3744 26.7291 34.0844 27.4282 33.5688 27.9437C33.0533 28.4593 32.3542 28.7493 31.6251 28.75ZM38.5001 24.625H36.9298C36.627 23.4472 35.9418 22.4032 34.9818 21.6567C34.0218 20.9102 32.8412 20.5034 31.6251 20.5V17.75H38.5001V24.625Z" fill="#6CBF79"/>
</svg>
