<svg width="36" height="36" viewBox="0 0 36 36" fill="none" xmlns="http://www.w3.org/2000/svg">
<path d="M18 36C8.0604 36 0 27.9396 0 18C0 8.0604 8.0604 0 18 0C27.9396 0 36 8.0604 36 18C36 27.9396 27.9396 36 18 36Z" fill="#25D366"/>
<path fill-rule="evenodd" clip-rule="evenodd" d="M26.4203 9.6192C24.1883 7.3836 21.2147 6.1524 18.0503 6.1488C11.5307 6.1488 6.22074 11.4552 6.22074 17.9784C6.22074 20.0628 6.76433 22.1004 7.80113 23.8932L6.12354 30.024L12.3947 28.3788C14.1227 29.322 16.0667 29.8188 18.0467 29.8188H18.0503C24.5699 29.8188 29.8763 24.5124 29.8799 17.9892C29.8835 14.8284 28.6559 11.8548 26.4203 9.6192ZM18.0539 27.8208H18.0503C16.2863 27.8208 14.5547 27.3456 13.0463 26.4492L12.6863 26.2368L8.96393 27.2124L9.95754 23.5836L9.72354 23.2128C8.74074 21.6468 8.21873 19.8396 8.21873 17.9784C8.22233 12.5568 12.6323 8.1468 18.0575 8.1468C20.6855 8.1468 23.1515 9.1728 25.0091 11.0304C26.8667 12.888 27.8891 15.3612 27.8855 17.9856C27.8855 23.4108 23.4719 27.8208 18.0539 27.8208ZM23.4467 20.4552C23.1515 20.3076 21.6971 19.5912 21.4271 19.494C21.1571 19.3968 20.9591 19.3464 20.7611 19.6416C20.5631 19.9368 19.9979 20.6028 19.8251 20.8008C19.6523 20.9988 19.4795 21.024 19.1843 20.8764C18.8891 20.7288 17.9351 20.4156 16.8083 19.4076C15.9299 18.6228 15.3359 17.6544 15.1631 17.3592C14.9903 17.064 15.1451 16.902 15.2927 16.7544C15.4259 16.6212 15.5879 16.4088 15.7355 16.236C15.8831 16.0632 15.9335 15.9408 16.0307 15.7428C16.1279 15.5448 16.0811 15.372 16.0055 15.2244C15.9299 15.0768 15.3395 13.6224 15.0947 13.0284C14.8535 12.4524 14.6123 12.5316 14.4287 12.5208C14.2559 12.5136 14.0579 12.51 13.8635 12.51C13.6655 12.51 13.3451 12.5856 13.0751 12.8808C12.8051 13.176 12.0419 13.8924 12.0419 15.3468C12.0419 16.8012 13.1003 18.2088 13.2479 18.4032C13.3955 18.6012 15.3323 21.5856 18.2987 22.8672C19.0043 23.1732 19.5551 23.3532 19.9835 23.49C20.6927 23.7168 21.3371 23.6844 21.8447 23.6088C22.4135 23.5224 23.5943 22.8924 23.8391 22.2048C24.0839 21.5136 24.0839 20.9232 24.0119 20.8008C23.9399 20.6784 23.7419 20.6064 23.4467 20.4552Z" fill="white"/>
</svg>
